<?xml version="1.0" standalone="no"?>
<!DOCTYPE svg PUBLIC "-//W3C//DTD SVG 20010904//EN"
 "http://www.w3.org/TR/2001/REC-SVG-20010904/DTD/svg10.dtd">
<svg version="1.0" xmlns="http://www.w3.org/2000/svg"
 width="842.000000pt" height="949.000000pt" viewBox="0 0 842.000000 949.000000"
 preserveAspectRatio="xMidYMid meet">

<g transform="translate(0.000000,949.000000) scale(0.100000,-0.100000)"
fill="#000000" stroke="none">
<path d="M4025 9484 c-313 -23 -519 -55 -750 -114 -1085 -279 -2020 -1028
-2621 -2098 -303 -541 -509 -1160 -599 -1805 -38 -275 -48 -433 -48 -747 0
-314 10 -472 48 -747 268 -1918 1533 -3460 3197 -3897 293 -77 280 -76 948
-76 599 0 600 0 727 25 1579 309 2877 1641 3313 3400 125 501 177 1033 152
1538 -20 390 -65 703 -152 1052 -312 1258 -1068 2318 -2090 2928 -476 284
-990 458 -1540 521 -133 15 -487 28 -585 20z m-30 -255 c42 -12 115 -76 115
-102 0 -10 -15 -21 -39 -28 -39 -11 -41 -11 -66 20 -34 40 -90 43 -132 7 -24
-21 -28 -32 -31 -94 -7 -117 30 -182 105 -182 39 0 83 37 83 69 0 11 4 22 8
25 8 5 82 -11 90 -19 2 -2 -4 -20 -13 -41 -32 -77 -90 -117 -170 -117 -101 0
-173 63 -196 171 -28 136 26 254 132 287 55 17 65 17 114 4z m352 3 c9 -6 10
-64 6 -230 l-6 -223 -45 3 -46 3 2 170 c2 94 5 196 9 228 5 56 6 57 37 57 17
0 36 -4 43 -8z m414 -33 c52 -18 97 -56 121 -102 42 -80 21 -232 -40 -300 -81
-90 -265 -69 -328 38 -49 84 -38 222 23 304 47 61 143 87 224 60z m-1209 -247
c70 -108 124 -200 120 -204 -4 -4 -25 -10 -48 -14 -40 -6 -41 -5 -68 40 -15
26 -30 45 -34 43 -4 -3 -42 -12 -84 -21 -70 -16 -78 -20 -78 -40 0 -65 -11
-84 -53 -95 -23 -5 -43 -8 -46 -6 -7 7 61 459 71 472 9 12 35 19 73 21 15 1
49 -44 147 -196z m1631 149 c5 -5 28 -82 51 -171 l42 -163 39 139 c21 76 39
140 40 141 0 1 18 -2 38 -8 23 -6 37 -16 37 -26 0 -8 -26 -107 -57 -220 -55
-195 -58 -204 -80 -198 -68 17 -66 13 -107 179 -22 86 -43 153 -46 149 -4 -5
-22 -63 -40 -130 -19 -70 -38 -123 -45 -123 -7 0 -26 5 -42 11 l-30 10 38 137
c22 75 49 172 60 216 l22 78 35 -6 c19 -3 39 -9 45 -15z m-2095 -258 c39 -109
72 -204 74 -212 2 -8 -14 -19 -39 -29 l-42 -16 -125 103 c-69 56 -126 100
-126 97 0 -3 20 -60 45 -127 25 -67 45 -126 45 -131 0 -7 -71 -41 -75 -36 -2
2 -34 91 -73 198 -39 107 -73 202 -77 211 -9 24 72 54 94 35 69 -58 241 -195
241 -192 0 3 -20 61 -45 129 -25 69 -45 129 -45 135 0 10 42 29 66 31 6 1 43
-88 82 -196z m2726 17 c9 -9 -7 -477 -17 -487 -3 -2 -24 5 -47 17 l-43 22 6
54 6 54 -77 35 -76 35 -38 -36 -37 -37 -41 18 c-22 10 -40 20 -40 23 0 2 73
80 163 172 l162 167 35 -14 c19 -8 39 -18 44 -23z m337 -187 c16 -10 29 -22
29 -28 0 -5 -29 -58 -63 -116 -35 -58 -76 -126 -91 -151 l-26 -45 81 -54 c45
-30 86 -57 92 -60 10 -7 -21 -69 -34 -69 -4 0 -64 37 -133 83 l-125 83 112
187 c61 103 116 187 120 187 5 0 22 -8 38 -17z m-3836 -42 c125 -58 197 -245
131 -342 -22 -31 -202 -167 -210 -158 -12 14 -226 371 -226 378 0 9 173 125
200 134 29 10 66 6 105 -12z m2320 -71 c597 -91 1139 -342 1620 -750 191 -162
449 -447 605 -668 162 -230 334 -544 438 -802 539 -1337 370 -2898 -438 -4042
-269 -381 -641 -737 -1012 -967 -382 -238 -772 -382 -1228 -454 -114 -18 -179
-21 -420 -21 -307 0 -423 12 -675 69 -844 191 -1609 759 -2111 1565 -821 1321
-831 3089 -24 4420 157 259 313 460 525 679 560 575 1239 911 2002 990 153 16
558 6 718 -19z m-2592 -421 l117 -64 -35 -35 -35 -35 -48 27 -47 26 -64 -58
-64 -57 19 -53 19 -52 -35 -28 c-19 -16 -38 -26 -41 -22 -3 4 -39 105 -80 224
l-73 218 34 35 34 35 90 -49 c50 -26 144 -77 209 -112z m4734 48 c87 -91 109
-135 98 -195 -17 -95 -107 -199 -190 -222 -73 -20 -112 -3 -212 93 l-85 82
144 162 c78 89 148 162 154 163 6 0 47 -38 91 -83z m-5241 -266 c97 -44 168
-140 168 -227 0 -59 -16 -88 -108 -196 l-58 -67 -159 146 c-87 81 -159 150
-159 155 0 19 144 177 174 192 41 21 92 20 142 -3z m5586 -108 c151 -191 151
-192 138 -208 -36 -43 -45 -39 -116 55 -38 49 -72 89 -76 90 -4 0 -22 -13 -39
-28 l-32 -28 67 -84 c36 -47 66 -88 66 -92 0 -3 -13 -16 -28 -27 l-29 -20 -67
85 -67 85 -27 -19 c-68 -49 -68 -47 14 -151 l75 -94 -22 -23 c-12 -13 -27 -24
-33 -23 -14 0 -201 242 -201 258 0 9 307 285 322 290 1 1 26 -29 55 -66z
m-5673 -479 c12 -10 10 -18 -8 -48 -13 -20 -25 -36 -28 -36 -4 0 -84 59 -180
130 l-173 130 26 40 26 39 161 -121 c89 -66 168 -126 176 -134z m5952 90 c26
-43 35 -34 -136 -150 -71 -48 -132 -89 -133 -90 -2 -1 21 -45 52 -96 l56 -93
-27 -22 c-16 -13 -30 -23 -33 -23 -7 1 -160 256 -160 266 1 8 337 241 352 243
3 1 16 -15 29 -35z m-6346 -118 c18 -13 18 -14 -4 -50 -18 -28 -29 -36 -51
-36 -34 0 -66 -31 -75 -72 -7 -29 7 -58 28 -58 5 0 40 29 78 64 86 81 130 98
185 69 55 -28 79 -65 79 -121 0 -85 -71 -192 -141 -211 -30 -8 -98 -1 -110 12
-3 3 4 23 15 44 18 36 22 39 55 35 58 -7 108 60 92 122 -12 47 -43 43 -100
-11 -82 -79 -104 -93 -151 -93 -108 0 -148 116 -78 228 49 79 129 114 178 78z
m-231 -440 c49 -20 76 -61 76 -113 l0 -44 29 15 c27 15 133 36 178 36 l21 0
-21 -49 -20 -50 -91 -16 c-107 -20 -121 -26 -141 -64 l-14 -29 75 -33 c42 -18
78 -38 81 -45 2 -6 -3 -28 -11 -48 l-15 -36 -73 33 c-198 91 -318 151 -318
159 0 16 71 182 97 226 15 26 38 49 56 57 41 18 50 18 91 1z m6906 -84 c34
-26 71 -101 77 -157 7 -53 -10 -98 -45 -126 l-26 -20 -19 37 c-18 35 -18 38
-1 69 20 38 14 72 -19 111 -17 19 -29 25 -42 21 -16 -7 -17 -18 -11 -125 6
-105 5 -120 -12 -148 -26 -41 -84 -68 -130 -60 -98 15 -176 191 -127 286 8 15
27 38 42 50 l27 21 23 -38 22 -37 -20 -22 c-11 -12 -22 -36 -25 -55 -11 -67
69 -139 106 -94 10 12 11 32 1 103 -10 70 -10 95 1 127 26 78 112 106 178 57z
m-7156 -402 c4 -4 -6 -54 -24 -110 -17 -56 -29 -108 -27 -114 3 -7 21 -17 41
-23 l36 -11 32 105 32 105 30 -6 c17 -4 34 -10 38 -14 4 -4 -6 -49 -22 -100
-17 -50 -30 -98 -30 -106 0 -8 21 -21 46 -30 46 -16 64 -14 64 6 0 5 14 54 31
109 31 102 36 107 82 90 l25 -10 -49 -158 c-28 -86 -52 -160 -55 -163 -10 -10
-415 133 -410 145 2 6 23 72 46 146 22 74 43 140 46 148 4 14 50 8 68 -9z
m7211 -134 l159 -11 18 -47 17 -47 -182 -155 -182 -154 -16 46 -17 47 41 36
41 36 -16 59 c-32 115 -31 114 -87 114 -49 0 -50 1 -60 38 -18 61 -18 61 57
55 37 -3 139 -10 227 -17z m-7214 -422 l192 -125 -7 -47 c-3 -25 -11 -49 -16
-52 -13 -8 -441 -62 -447 -56 -6 5 6 69 16 84 4 7 69 18 151 27 80 9 151 18
159 21 8 3 -43 40 -115 85 -71 44 -133 84 -137 89 -8 7 1 100 9 100 2 0 89
-57 195 -126z m7497 -41 l9 -41 -118 -118 c-65 -65 -117 -119 -116 -120 1 -1
60 11 132 26 71 16 131 27 133 25 5 -5 22 -79 18 -82 -1 -1 -90 -21 -197 -43
-106 -23 -202 -43 -211 -46 -13 -4 -18 4 -24 42 l-7 46 114 114 c63 63 108
114 101 114 -7 0 -65 -11 -129 -25 -128 -28 -133 -27 -133 31 l0 31 153 33
c83 18 177 38 207 45 30 7 56 12 57 11 1 -1 6 -20 11 -43z m-7563 -397 l190
-32 -3 -44 c-2 -24 -4 -46 -6 -47 -3 -3 -325 48 -398 63 -29 6 -34 24 -22 72
8 28 7 28 239 -12z m7649 -93 c17 -117 37 -314 31 -323 -3 -5 -21 -10 -39 -10
l-33 0 -7 62 c-3 34 -7 63 -9 64 -1 2 -68 -6 -147 -16 -80 -11 -159 -20 -176
-20 -31 0 -32 2 -35 44 -5 51 -27 44 208 72 l143 17 -6 56 c-4 31 -7 60 -8 65
-1 8 24 17 66 25 3 0 9 -16 12 -36z m-7679 -153 c99 -11 182 -20 185 -20 3 0
3 -21 0 -47 l-5 -48 -137 -70 c-76 -38 -138 -73 -138 -76 0 -3 37 -9 83 -13
174 -14 177 -15 177 -50 0 -58 2 -58 -210 -36 -107 11 -202 20 -212 20 -13 0
-18 8 -18 28 0 59 8 65 155 142 l144 75 -42 6 c-23 4 -84 10 -134 14 l-93 7 0
44 c0 43 1 44 33 44 17 0 113 -9 212 -20z m7504 -315 c116 -41 216 -77 221
-80 6 -3 10 -26 10 -51 l0 -45 -205 -100 c-114 -54 -210 -99 -215 -99 -6 0
-10 22 -10 48 0 47 1 48 45 70 l45 22 0 89 0 88 -45 13 c-25 7 -50 21 -55 31
-9 17 -14 89 -6 89 2 0 98 -34 215 -75z m-7543 -208 c118 -3 145 -16 175 -80
40 -89 14 -216 -53 -257 -30 -18 -50 -20 -206 -20 l-173 0 3 48 3 47 157 -4
156 -4 26 26 c30 30 36 90 12 122 -16 22 -101 33 -253 34 l-93 1 0 43 c0 24 2
46 5 48 2 3 35 3 72 2 37 -2 113 -4 169 -6z m1002 -2471 c94 -49 138 -168 91
-245 l-21 -34 -29 29 c-27 27 -29 32 -18 62 20 59 -23 122 -84 122 -36 0 -94
-30 -134 -70 -67 -66 -28 -169 58 -157 36 5 41 3 50 -20 18 -48 12 -61 -31
-68 -58 -10 -124 24 -161 83 -67 106 -17 233 115 293 49 22 127 24 164 5z
m5696 -189 c67 -46 126 -94 137 -111 33 -53 21 -116 -33 -186 -47 -59 -117
-76 -181 -43 -60 30 -237 153 -237 164 0 6 9 24 21 40 l20 29 109 -75 c132
-92 152 -100 189 -80 32 16 56 64 46 94 -3 11 -61 57 -128 102 -67 45 -123 83
-125 85 -8 6 44 72 53 66 5 -3 63 -41 129 -85z m-256 14 c11 -44 3 -81 -18
-81 -4 0 -18 16 -30 35 l-22 35 22 36 c26 41 33 37 48 -25z m-5134 -220 l27
-28 -59 -54 -60 -54 53 -60 53 -59 57 52 c31 29 60 52 63 51 4 0 18 -14 31
-30 23 -30 23 -31 5 -48 -10 -10 -79 -71 -152 -136 l-133 -118 -31 30 -30 31
43 40 c24 22 55 49 68 60 l25 19 -50 56 c-27 31 -53 57 -57 57 -5 0 -36 -25
-70 -55 l-61 -55 -28 27 c-16 15 -27 31 -26 35 4 10 290 267 299 268 3 0 18
-13 33 -29z m5016 -178 c53 -31 72 -94 46 -153 -5 -12 5 -15 56 -17 35 -2 85
-8 111 -15 l48 -13 -38 -37 -38 -36 -70 13 c-98 20 -125 18 -152 -6 l-22 -22
62 -58 62 -58 -32 -32 -32 -32 -147 145 -147 145 64 68 c114 122 165 146 229
108z m-4623 -242 c-43 -54 -251 -287 -259 -290 -11 -4 -58 38 -58 51 0 5 59
76 131 158 l132 149 33 -27 c27 -21 31 -29 21 -41z m4217 -87 c10 -14 14 -29
10 -33 -5 -5 -44 -33 -86 -65 -43 -31 -78 -59 -78 -64 0 -4 11 -20 23 -36 l24
-29 76 56 c42 32 81 57 86 57 9 0 45 -50 39 -54 -2 -2 -38 -29 -80 -60 l-78
-58 30 -44 31 -43 90 66 c87 63 90 65 109 48 11 -10 20 -24 20 -31 0 -7 -55
-53 -122 -103 l-122 -90 -123 166 -122 166 117 88 c64 48 122 88 127 88 6 0
18 -11 29 -25z m-3998 -64 c24 -17 44 -35 44 -40 0 -5 -18 -60 -40 -122 -22
-62 -39 -115 -38 -119 2 -4 46 30 98 77 52 46 99 84 104 84 5 0 31 -14 57 -31
l48 -30 -110 -167 c-61 -92 -114 -168 -119 -170 -12 -4 -60 28 -60 39 0 6 31
56 68 112 91 135 92 139 41 91 -24 -22 -75 -68 -112 -102 l-68 -62 -32 22
c-18 12 -33 22 -35 23 -1 1 18 59 43 130 25 70 44 130 42 132 -2 2 -37 -46
-77 -107 l-73 -110 -31 20 c-17 11 -30 24 -28 30 5 21 215 330 224 330 5 0 29
-14 54 -30z m3611 -264 c69 -74 51 -154 -47 -213 -30 -18 -59 -34 -64 -36 -4
-1 6 -31 23 -65 17 -34 31 -65 31 -70 0 -5 -15 -16 -34 -25 l-35 -16 -49 92
c-73 136 -132 255 -132 267 0 6 46 33 103 61 121 60 153 61 204 5z m-3032 -71
c76 -36 95 -50 109 -79 9 -18 16 -39 16 -46 0 -25 -32 -71 -60 -85 -29 -15
-30 -17 -15 -38 26 -37 19 -83 -19 -125 -47 -51 -89 -50 -221 7 -55 24 -104
47 -109 51 -4 5 28 91 74 194 94 213 66 198 225 121z m563 -191 c93 -46 127
-150 87 -265 -49 -137 -211 -180 -322 -84 -54 46 -67 80 -61 165 13 172 150
257 296 184z m444 -74 c174 -18 168 -16 168 -57 l0 -36 -60 7 c-33 4 -60 6
-61 4 -1 -2 -9 -77 -18 -168 l-16 -165 -40 3 c-22 2 -42 6 -44 8 -3 3 12 175
26 285 l5 47 -61 7 c-63 7 -71 16 -55 59 7 19 20 19 156 6z m648 -44 l0 -33
-61 -7 c-34 -3 -84 -6 -110 -6 l-49 0 0 -43 0 -44 105 5 105 5 0 -35 0 -35
-61 -7 c-34 -3 -79 -6 -100 -6 l-39 0 0 -53 0 -52 115 4 115 3 0 -34 0 -35
-77 -7 c-42 -3 -111 -6 -154 -6 l-77 0 -6 63 c-3 34 -8 126 -12 204 l-6 142
74 4 c40 1 110 4 156 5 l82 2 0 -34z m694 -78 c13 -49 8 -56 -51 -73 -32 -9
-65 -18 -74 -21 -12 -3 -19 6 -27 36 l-10 40 57 16 c31 8 61 17 66 19 23 8 33
4 39 -17z"/>
<path d="M4650 9112 c-49 -24 -70 -71 -70 -155 0 -62 3 -71 29 -97 68 -69 163
-41 190 56 29 103 2 184 -66 203 -48 14 -42 14 -83 -7z"/>
<path d="M3390 8998 c0 -13 -3 -47 -7 -77 l-6 -54 39 8 c66 12 67 15 26 83
-40 66 -52 75 -52 40z"/>
<path d="M5672 8708 l-52 -54 45 -22 c25 -12 47 -22 50 -22 7 0 17 84 13 118
l-3 33 -53 -53z"/>
<path d="M2173 8528 l-52 -33 75 -123 76 -122 29 17 c45 27 78 61 85 89 8 33
-46 144 -87 178 -40 34 -64 33 -126 -6z"/>
<path d="M2447 7392 c-8 -142 6 -276 40 -365 l27 -72 3 -339 4 -338 -23 5
c-137 34 -286 1 -404 -89 -82 -63 -190 -256 -231 -413 -71 -277 -13 -681 134
-934 119 -203 295 -373 490 -471 98 -49 111 -73 84 -154 -33 -96 -43 -187 -43
-377 0 -195 14 -351 40 -430 l17 -50 88 -3 c48 -1 87 -6 87 -10 0 -4 5 -41 11
-82 7 -53 6 -107 -2 -184 l-12 -109 -104 7 c-99 6 -105 5 -127 -17 -21 -21
-23 -35 -29 -161 -12 -241 -10 -263 18 -291 24 -25 24 -25 240 -25 170 0 223
3 252 15 20 8 38 14 40 11 2 -2 -30 -40 -72 -84 -91 -96 -192 -174 -335 -259
-58 -34 -116 -71 -130 -82 -22 -17 -23 -21 -10 -35 13 -14 25 -13 110 9 52 14
96 25 98 25 2 0 2 -6 1 -12 -6 -47 9 -48 165 -9 257 65 473 198 621 382 76 95
82 101 59 60 -29 -52 -158 -184 -237 -244 -40 -30 -121 -82 -180 -117 -89 -52
-107 -67 -105 -84 3 -18 9 -21 48 -18 78 6 232 51 317 91 115 55 186 106 274
197 86 89 148 179 215 316 l46 93 -6 -67 c-13 -135 -88 -339 -168 -456 -18
-26 -66 -80 -106 -119 -63 -61 -73 -75 -62 -88 7 -8 16 -15 20 -15 12 0 198
136 264 194 131 113 237 280 291 461 15 50 29 97 32 105 3 8 16 -25 29 -74 46
-168 133 -324 248 -440 56 -58 299 -246 316 -246 4 0 13 7 20 15 11 13 2 27
-61 89 -85 83 -136 154 -185 261 -40 86 -81 232 -89 319 l-7 61 54 -105 c70
-138 118 -209 203 -299 145 -153 323 -246 546 -285 73 -13 86 -13 99 0 19 19
8 29 -104 93 -48 28 -124 77 -168 108 -87 63 -222 199 -251 254 -14 25 -14 29
-2 14 122 -153 196 -223 320 -304 123 -80 327 -155 476 -176 38 -6 47 -4 53
10 3 9 4 21 0 26 -7 12 -8 12 98 -16 80 -22 94 -23 107 -10 19 19 3 39 -60 71
-115 58 -297 190 -393 286 -54 54 -97 101 -94 103 2 2 22 -2 43 -10 30 -10 96
-14 251 -15 276 0 264 -8 263 163 0 67 -4 162 -7 210 -10 123 -18 129 -156
120 l-103 -6 -11 109 c-8 77 -8 132 0 191 l11 83 83 0 c81 0 84 1 98 28 33 64
62 368 51 547 -7 129 -30 267 -51 308 -14 26 -14 32 1 63 12 25 32 42 86 69
195 97 368 263 491 470 133 223 199 593 153 858 -30 174 -120 363 -219 463
-109 109 -282 156 -433 118 l-23 -6 0 331 c0 313 1 334 20 371 45 88 67 272
52 435 l-8 90 -28 -55 c-67 -129 -208 -320 -237 -320 -5 0 -9 10 -9 23 0 12
-9 36 -19 53 -62 102 -237 152 -606 174 -222 13 -1466 13 -1688 0 -281 -17
-461 -54 -548 -113 -41 -28 -79 -82 -79 -113 0 -35 -13 -30 -65 29 -58 63
-107 136 -164 240 -23 42 -44 77 -45 77 -2 0 -6 -48 -9 -108z m1078 -142 l80
-80 -241 0 c-229 0 -243 -1 -268 -21 -20 -16 -26 -29 -26 -60 l0 -39 -96 0
c-118 0 -172 14 -185 49 -22 55 17 113 101 150 61 27 231 59 365 70 204 15
180 22 270 -69z m1245 -25 c-64 -64 -124 -115 -154 -130 l-50 -25 -365 0
c-342 0 -369 2 -409 20 -26 12 -89 65 -155 130 l-112 110 675 0 675 0 -105
-105z m357 94 c314 -25 468 -79 488 -168 16 -75 -32 -101 -189 -101 l-96 0 0
40 c0 27 -7 47 -20 60 -19 19 -33 20 -267 20 l-248 0 80 80 c52 52 87 80 102
80 12 0 80 -5 150 -11z m694 -162 c-41 -87 -109 -159 -179 -194 -56 -28 -60
-28 -274 -31 l-217 -3 -3 48 c-2 38 -8 50 -26 59 -20 10 -62 64 -62 79 0 11
197 4 208 -7 7 -7 12 -29 12 -50 0 -62 26 -72 167 -65 99 6 125 11 177 35 65
31 157 108 197 166 35 51 35 36 0 -37z m-3050 -126 c59 -29 76 -32 185 -38
108 -5 121 -4 143 14 16 13 25 31 26 55 1 19 5 40 9 47 5 7 44 11 111 11 l104
0 -26 -40 c-15 -22 -30 -40 -34 -40 -20 0 -39 -35 -39 -71 l0 -40 -217 3
c-215 3 -219 3 -274 31 -69 33 -128 95 -168 176 -17 33 -31 63 -31 66 0 3 33
-27 73 -68 49 -50 93 -84 138 -106z m-155 -30 c52 -57 140 -106 223 -121 69
-13 392 -13 426 0 14 5 29 19 33 31 8 21 9 21 26 -5 22 -34 73 -66 106 -66 21
-1 22 -2 8 -10 -10 -6 -150 -9 -355 -7 l-338 2 -51 27 c-88 46 -139 116 -170
233 -22 82 -16 92 17 27 16 -34 50 -84 75 -111z m3259 72 c-34 -116 -86 -184
-173 -225 -46 -22 -57 -23 -378 -26 -194 -1 -341 2 -355 7 l-24 10 25 0 c33 1
85 33 106 67 17 26 18 26 26 5 4 -12 19 -26 33 -31 35 -13 357 -13 431 1 122
22 227 104 290 223 34 65 43 51 19 -31z m-2267 32 c2 -2 2 -17 0 -34 l-3 -31
-23 41 -24 41 24 -7 c12 -4 24 -9 26 -10z m1232 10 c0 -2 -11 -21 -25 -41
l-25 -37 0 31 c0 19 7 35 18 41 18 11 32 14 32 6z m-107 -30 c-8 -37 33 -156
72 -214 l35 -51 -640 0 -641 0 24 33 c41 53 68 116 80 183 l12 63 51 -35 c71
-50 145 -57 539 -52 301 3 323 5 365 25 25 12 59 33 75 47 17 14 31 25 31 26
1 0 -1 -11 -3 -25z m-1217 -10 c35 -22 48 -76 30 -118 -30 -72 -120 -86 -170
-26 -78 92 38 211 140 144z m1507 -15 c40 -44 37 -92 -7 -136 -38 -38 -70 -43
-116 -19 -37 19 -50 43 -50 92 1 44 15 66 56 88 39 21 83 12 117 -25z m-2413
-223 c14 -12 33 -39 42 -60 10 -20 36 -49 57 -64 28 -19 38 -33 35 -45 -3 -10
-5 -40 -6 -68 0 -56 35 -141 74 -177 48 -45 147 -95 253 -128 222 -70 1123
-335 1137 -335 13 0 1025 298 1158 342 148 48 234 108 276 194 26 54 34 123
20 172 -3 11 5 24 27 37 17 11 41 36 53 55 32 50 74 100 85 100 5 0 9 -128 9
-300 l0 -299 -42 -19 c-24 -11 -182 -97 -353 -191 l-310 -171 -38 82 c-22 46
-40 84 -42 86 -1 1 -191 -99 -421 -223 l-419 -226 -33 15 c-18 9 -208 111
-423 227 -215 116 -392 209 -394 207 -2 -2 -19 -39 -39 -83 -19 -44 -41 -79
-47 -77 -7 2 -150 79 -318 172 -169 93 -324 176 -344 186 l-37 18 0 298 c0
164 3 298 8 298 4 0 18 -11 32 -23z m495 -70 l40 -2 -36 -22 c-19 -12 -47 -39
-61 -58 l-25 -36 -33 40 c-17 23 -40 41 -49 41 -10 0 -43 -18 -74 -40 -30 -22
-58 -40 -60 -40 -3 0 -3 17 0 39 5 37 4 39 -30 50 -19 7 -40 17 -45 24 -8 9
29 11 161 9 95 -1 190 -3 212 -5z m2565 -2 c-6 -8 -28 -20 -47 -27 -33 -12
-35 -14 -29 -50 4 -21 4 -38 2 -38 -3 0 -31 18 -62 40 -32 22 -64 40 -72 40
-8 0 -29 -17 -47 -37 l-32 -37 -52 52 c-29 29 -57 53 -64 54 -7 1 78 5 188 8
110 3 206 7 214 8 11 2 11 -1 1 -13z m-585 -5 c96 -14 191 -62 229 -117 51
-73 47 -177 -10 -265 -29 -46 -47 -48 -64 -8 -11 27 -10 32 13 60 54 64 45
153 -23 213 -70 64 -36 62 -1025 62 -991 0 -960 2 -1034 -62 -67 -57 -76 -133
-25 -209 24 -34 24 -39 11 -72 l-14 -36 -26 28 c-45 48 -62 95 -62 173 0 63 3
76 30 115 38 53 134 105 220 117 86 12 1694 13 1780 1z m-2125 -120 c0 -9
-136 -100 -150 -100 -5 0 -10 8 -10 18 0 26 130 114 147 100 7 -6 13 -14 13
-18z m2585 -25 c50 -36 62 -50 58 -66 -5 -19 -7 -19 -32 -3 -124 81 -131 87
-120 100 17 21 25 18 94 -31z m-2198 -42 c19 -35 18 -37 -13 -47 -19 -6 -23 0
-36 53 -9 33 -13 63 -10 66 7 7 33 -26 59 -72z m83 73 c0 -3 -5 -17 -11 -33
l-10 -28 -19 25 c-26 34 -25 40 10 40 17 0 30 -2 30 -4z m118 -35 c12 -21 22
-41 22 -45 0 -3 -25 -6 -56 -6 -50 0 -55 2 -49 18 4 9 12 29 17 45 14 38 40
34 66 -12z m103 22 c-24 -43 -27 -43 -45 -13 l-17 30 36 0 c31 0 34 -2 26 -17z
m129 -25 l31 -43 -62 -3 c-34 -2 -64 -1 -67 2 -7 7 46 86 57 86 5 0 23 -19 41
-42z m98 17 c-6 -14 -14 -25 -18 -25 -4 0 -15 11 -24 25 l-16 25 35 0 c33 0
34 -1 23 -25z m110 -14 c12 -21 22 -41 22 -45 0 -3 -22 -6 -50 -6 l-50 0 22
45 c12 25 25 45 28 45 4 0 16 -17 28 -39z m100 17 c-21 -31 -33 -32 -46 -3
-11 24 -10 25 24 25 35 0 36 -1 22 -22z m165 -10 c13 -18 27 -38 30 -44 4 -7
-22 -11 -83 -11 l-89 0 30 44 c39 56 76 59 112 11z m105 7 c-6 -14 -14 -25
-18 -25 -4 0 -15 11 -24 25 l-16 25 35 0 c33 0 34 -1 23 -25z m107 -12 c11
-21 21 -41 23 -45 2 -5 -19 -8 -47 -8 -28 0 -51 2 -51 6 0 9 45 84 51 84 3 0
14 -17 24 -37z m103 15 c-21 -31 -33 -32 -46 -3 -11 24 -10 25 24 25 35 0 36
-1 22 -22z m130 -18 c12 -21 22 -41 22 -44 0 -4 -29 -6 -65 -6 l-66 0 31 45
c17 25 36 45 43 45 7 0 22 -18 35 -40z m96 9 c-17 -33 -18 -32 -45 14 -8 15
-5 17 26 17 l36 0 -17 -31z m130 -9 c9 -22 16 -43 16 -45 0 -3 -25 -5 -55 -5
-30 0 -55 2 -55 6 0 3 10 23 23 44 29 51 50 51 71 0z m106 32 c0 -4 -7 -18
-16 -31 l-17 -24 -13 24 c-19 35 -17 39 16 39 17 0 30 -3 30 -8z m73 -65 c-12
-42 -20 -56 -30 -52 -8 3 -19 5 -24 5 -16 0 -10 18 22 71 18 28 35 47 40 42 5
-5 1 -34 -8 -66z m-1858 -19 l7 -38 -41 0 c-34 0 -41 3 -41 19 0 11 12 34 27
51 29 35 36 31 48 -32z m1985 -15 c0 -20 -5 -23 -40 -23 -44 0 -46 4 -29 64
l11 38 29 -28 c16 -15 29 -38 29 -51z m-2207 -150 l17 -32 -44 15 c-46 16
-147 81 -153 99 -2 6 32 34 74 63 l78 53 6 -83 c3 -47 13 -97 22 -115z m2485
129 c28 -19 52 -39 52 -43 0 -19 -164 -119 -195 -119 -2 0 6 21 17 47 14 32
21 69 22 115 l0 68 26 -17 c14 -9 49 -32 78 -51z m-546 -27 c37 -7 84 -22 105
-32 43 -20 101 -76 123 -116 12 -25 12 -29 0 -37 -29 -19 -48 -9 -86 42 -23
31 -57 61 -84 75 l-46 23 -772 0 c-631 0 -778 -2 -804 -13 -46 -20 -91 -59
-113 -101 -20 -36 -45 -45 -73 -27 -30 19 46 114 121 152 88 46 122 47 862 48
570 1 713 -2 767 -14z m-1737 -35 c3 -5 -1 -10 -9 -10 -8 0 -18 5 -21 10 -3 6
1 10 9 10 8 0 18 -4 21 -10z m1980 0 c-3 -5 -10 -10 -16 -10 -5 0 -9 5 -9 10
0 6 7 10 16 10 8 0 12 -4 9 -10z m-219 -76 c36 -17 94 -79 94 -100 0 -7 -14
-15 -30 -19 -25 -6 -34 -2 -50 18 -11 14 -42 34 -68 44 -44 17 -92 18 -732 18
-746 0 -738 1 -791 -57 -22 -23 -32 -27 -58 -22 -17 4 -31 11 -31 17 0 20 52
78 88 97 36 18 63 19 790 20 677 0 757 -2 788 -16z m-66 -112 c19 -9 34 -21
33 -27 -5 -20 -66 -27 -108 -13 -59 19 -1232 19 -1291 -1 -33 -11 -49 -11 -78
-1 -41 13 -39 25 8 46 25 11 161 13 716 14 633 0 688 -1 720 -18z m-2435 -42
c68 -18 111 -39 395 -195 151 -83 309 -170 351 -193 l76 -42 33 78 c17 42 35
81 40 86 4 4 188 -89 409 -208 220 -119 405 -216 412 -216 6 0 191 97 412 216
220 118 403 212 408 207 4 -4 23 -43 41 -85 l34 -77 355 195 c199 110 387 206
429 221 156 53 330 9 435 -110 53 -61 148 -246 169 -332 48 -189 40 -409 -23
-643 -14 -51 21 -65 -296 121 l-230 135 -5 322 -5 322 -24 19 c-18 15 -33 18
-55 14 -31 -7 -269 -134 -721 -386 -66 -37 -122 -65 -124 -63 -2 2 -13 43 -25
92 l-21 89 -377 -199 -377 -199 -378 199 -378 200 -18 -81 c-10 -45 -20 -87
-22 -94 -3 -8 -50 13 -132 59 -621 344 -694 382 -730 382 -68 0 -67 1 -73
-356 l-5 -320 -254 -150 c-175 -102 -257 -145 -262 -137 -4 7 -17 57 -28 113
-63 300 -40 540 74 754 75 142 150 213 268 253 58 20 161 24 222 9z m2008
-129 l-292 -89 -273 83 c-150 45 -280 84 -288 88 -8 3 246 6 565 6 l580 0
-292 -88z m-1682 -228 l249 -138 -3 -340 -2 -340 26 -95 c15 -52 26 -96 25
-97 -4 -5 -140 29 -188 47 -97 36 -278 161 -278 191 0 6 5 7 11 4 21 -14 99
17 129 51 27 32 30 33 39 15 17 -30 123 -56 144 -35 3 3 -10 26 -29 51 -37 49
-41 76 -20 128 13 31 19 35 53 35 63 0 69 11 34 60 -26 36 -31 52 -31 100 0
42 -5 64 -20 83 -16 20 -19 34 -14 64 4 26 0 54 -14 88 -28 71 -51 72 -116 2
-28 -30 -66 -63 -85 -74 -41 -22 -51 -43 -22 -43 26 0 26 -2 1 -42 -11 -19
-20 -51 -20 -75 0 -50 -14 -90 -42 -120 -33 -36 -17 -57 38 -50 l46 5 -7 -47
c-9 -60 -41 -133 -70 -161 l-23 -21 -26 33 c-40 53 -56 112 -66 243 -11 134
-13 575 -4 599 3 9 13 16 21 16 9 0 127 -62 264 -137z m3065 111 c13 -49 -3
-655 -19 -716 -13 -52 -64 -148 -79 -148 -18 0 -60 68 -78 127 -29 96 -28 102
20 96 25 -4 46 -1 55 7 14 12 13 16 -9 39 -33 34 -46 72 -46 130 0 33 -6 56
-20 74 -11 14 -20 28 -20 31 0 3 9 6 20 6 30 0 24 26 -7 38 -16 5 -56 37 -89
71 -35 34 -70 61 -82 61 -28 0 -67 -96 -58 -144 5 -25 1 -43 -14 -68 -13 -21
-20 -50 -20 -81 0 -49 -17 -94 -44 -117 -24 -19 -1 -40 45 -40 33 0 41 -5 54
-30 25 -49 19 -91 -20 -137 -19 -22 -31 -43 -28 -47 12 -11 84 -6 112 9 16 8
31 22 35 30 5 14 10 11 31 -13 30 -36 103 -67 137 -58 17 5 8 -7 -34 -46 -97
-91 -219 -154 -354 -182 -38 -8 -70 -13 -71 -12 -2 2 4 22 12 45 41 118 48
203 41 521 l-6 305 247 137 c137 75 256 137 265 138 11 0 20 -10 24 -26z
m-2968 -256 c15 -40 17 -57 9 -78 -9 -22 -6 -33 12 -58 16 -23 23 -49 25 -92
2 -43 9 -69 24 -90 25 -33 15 -41 -13 -10 -18 20 -41 18 -28 -3 4 -7 0 -6 -10
2 -19 15 -23 1 -5 -17 7 -7 8 -12 4 -12 -4 0 -16 10 -27 23 -22 26 -26 11 -4
-20 13 -18 12 -25 -2 -62 l-16 -41 -75 0 -74 0 5 29 c3 15 9 52 12 82 6 53 5
53 -9 24 -12 -26 -14 -27 -15 -9 -1 12 -8 24 -16 27 -18 8 -18 88 0 133 15 37
65 86 118 116 20 12 37 25 37 30 0 13 -8 10 -66 -27 -30 -19 -59 -35 -64 -35
-14 0 133 139 147 140 6 0 20 -23 31 -52z m2684 -3 c28 -30 60 -57 70 -61 19
-6 25 -24 9 -24 -6 0 -31 14 -57 32 -26 17 -54 32 -63 33 -9 0 -22 5 -30 9
-16 10 -32 -11 -29 -39 4 -27 35 -31 43 -6 3 12 10 21 15 21 21 0 129 -94 144
-124 21 -45 22 -146 1 -146 -9 0 -15 -10 -16 -22 -1 -21 -2 -21 -6 -3 -3 11
-10 25 -15 30 -10 10 -10 -1 8 -115 l7 -41 -74 3 -74 3 -18 39 c-17 36 -17 39
-2 56 10 11 15 25 13 32 -3 8 -9 5 -17 -10 -6 -12 -17 -22 -23 -22 -9 0 -9 3
0 12 21 21 13 32 -10 12 -19 -16 -20 -16 -9 -1 22 28 4 33 -24 7 -30 -28 -32
-22 -5 22 13 22 20 51 20 86 0 39 6 61 20 80 16 20 19 34 15 67 -7 46 18 125
41 125 7 0 37 -25 66 -55z m-1741 -204 c188 -100 346 -181 350 -181 5 0 167
84 360 186 193 102 353 183 356 180 3 -2 13 -41 23 -86 10 -45 20 -84 23 -86
3 -3 46 18 96 45 50 28 93 51 96 51 3 0 5 -67 5 -150 l0 -150 -960 0 -960 0 0
150 c0 83 3 150 6 150 3 0 46 -23 96 -50 59 -32 94 -47 98 -40 4 6 15 47 24
91 13 60 21 79 31 75 8 -3 168 -86 356 -185z m-664 -175 c-2 -356 2 -390 66
-510 38 -72 98 -121 222 -183 221 -111 336 -239 380 -425 28 -121 13 -371 -34
-573 -22 -91 -86 -310 -96 -326 -4 -5 -24 -9 -47 -9 -47 0 -48 -12 11 142 84
220 129 458 116 617 -13 167 -84 321 -187 401 -27 22 -103 67 -170 102 -193
100 -255 179 -314 403 -26 98 -27 106 -25 385 1 157 5 295 7 307 6 21 7 21 39
6 l34 -16 -2 -321z m2106 152 c4 -357 1 -414 -27 -520 -55 -215 -120 -298
-308 -393 -146 -74 -207 -121 -262 -203 -84 -125 -116 -282 -96 -470 14 -131
65 -333 119 -472 23 -58 41 -109 41 -113 0 -5 -19 -7 -42 -5 l-42 3 -43 140
c-119 390 -135 702 -45 881 65 129 147 204 317 294 134 71 180 104 217 153 85
117 102 223 95 590 l-6 278 32 20 c18 10 35 19 40 19 4 0 8 -91 10 -202z
m-2632 -121 l-24 -22 19 27 c10 14 21 24 23 22 3 -3 -6 -15 -18 -27z m39 3
c-6 -12 -14 -20 -17 -17 -2 3 1 14 8 26 17 26 24 19 9 -9z m3045 4 c9 -15 12
-23 6 -20 -11 7 -35 46 -28 46 3 0 12 -12 22 -26z m-20 -22 c-8 -8 -25 10 -25
26 0 13 2 13 14 -4 8 -10 13 -21 11 -22z m-3237 -108 c-11 -10 -481 -304 -483
-302 -11 12 -34 83 -28 86 4 2 118 68 253 147 l245 143 8 -35 c4 -20 6 -37 5
-39z m3692 -74 c135 -78 246 -144 248 -145 2 -2 -5 -22 -15 -45 l-18 -41 -240
152 c-132 83 -240 152 -241 153 -5 5 10 75 15 72 3 -2 116 -68 251 -146z
m-1020 76 c0 -19 3 -41 6 -50 6 -15 -83 -16 -960 -16 l-966 0 0 50 0 50 960 0
960 0 0 -34z m-2276 -20 c3 -14 18 -38 32 -55 l26 -31 -37 0 c-38 0 -85 35
-85 65 0 27 -27 16 -33 -14 -7 -33 -50 -68 -95 -77 l-29 -6 31 66 31 65 70 3
c39 2 73 5 76 6 4 1 10 -9 13 -22z m2729 14 l62 0 31 -66 31 -66 -29 6 c-44 9
-76 35 -90 72 -12 34 -38 47 -38 19 0 -27 -47 -65 -80 -65 -16 0 -30 2 -30 5
0 2 11 21 25 41 14 20 25 43 25 51 0 10 6 13 16 9 9 -3 43 -6 77 -6z m-2995
-209 c69 -70 173 -140 267 -177 54 -22 65 -29 49 -35 -57 -23 -180 -1 -314 55
-46 20 -88 36 -92 36 -14 0 50 -103 89 -143 77 -79 192 -121 371 -133 84 -6
93 -9 76 -21 -71 -52 -278 -73 -403 -40 -52 14 -66 15 -73 5 -20 -32 -7 -46
68 -78 117 -48 217 -71 349 -77 l120 -6 -50 -23 c-94 -43 -170 -57 -285 -51
-206 10 -390 104 -571 294 -73 76 -179 223 -179 246 0 7 105 78 232 159 l232
146 28 -49 c16 -27 54 -75 86 -108z m3525 2 c148 -94 225 -149 220 -156 -83
-142 -230 -305 -350 -388 -228 -157 -470 -192 -678 -98 l-50 23 105 7 c155 9
289 43 402 100 35 18 37 21 26 44 -7 16 -17 24 -26 20 -8 -3 -55 -13 -105 -21
-113 -20 -222 -8 -312 34 l-60 29 102 7 c230 16 361 83 436 224 16 28 24 52
20 52 -5 0 -47 -16 -93 -36 -133 -56 -257 -78 -313 -55 -14 5 0 14 57 38 134
56 246 142 321 248 25 34 45 68 45 74 0 7 5 9 13 5 6 -4 114 -72 240 -151z
m-2513 -3 l0 -100 -180 0 -180 0 -10 26 c-6 15 -13 60 -17 100 l-6 74 197 0
196 0 0 -100z m1090 80 c0 -20 -7 -20 -520 -20 -513 0 -520 0 -520 20 0 20 7
20 520 20 513 0 520 0 520 -20z m437 -52 c-3 -40 -10 -85 -16 -100 l-11 -28
-180 0 -180 0 0 100 0 100 196 0 197 0 -6 -72z m-1389 -50 l3 -38 55 0 c47 0
54 -2 54 -20 0 -19 -7 -20 -100 -20 l-100 0 0 61 0 60 43 -3 c41 -3 42 -4 45
-40z m192 2 l0 -40 239 0 240 0 3 38 3 37 73 3 c67 3 72 1 72 -18 0 -18 -6
-20 -60 -20 l-60 0 0 -40 0 -40 -270 0 -270 0 0 40 0 40 -60 0 c-43 0 -60 4
-60 13 0 23 11 27 82 27 l68 0 0 -40z m435 20 c0 -13 -29 -15 -189 -18 -108
-1 -194 2 -199 7 -26 26 9 31 196 29 163 -3 192 -5 192 -18z m325 -40 l0 -60
-100 0 c-93 0 -100 1 -100 20 0 18 7 20 55 20 l55 0 0 33 c0 43 5 47 52 47
l38 0 0 -60z m390 -113 c0 -7 -11 -29 -25 -50 l-26 -37 -859 0 -859 0 -26 37
c-14 21 -25 43 -25 50 0 10 182 13 910 13 728 0 910 -3 910 -13z m-1961 -111
c17 -32 31 -62 31 -67 0 -14 -248 -10 -321 5 -68 15 -162 56 -175 78 -5 8 -2
9 12 4 98 -38 247 -33 349 11 39 17 71 30 72 29 1 -1 15 -28 32 -60z m2207 32
c86 -40 203 -50 303 -24 35 9 66 15 68 13 9 -10 -124 -70 -184 -82 -69 -15
-323 -21 -323 -8 0 7 63 133 66 133 1 0 33 -14 70 -32z m-376 -63 c0 -2 -49
-29 -109 -60 -70 -36 -135 -78 -182 -120 -41 -36 -117 -98 -169 -137 -111 -85
-261 -227 -291 -275 -11 -18 -24 -33 -27 -33 -4 0 -18 17 -32 37 -40 59 -153
166 -258 244 -53 40 -119 94 -147 120 -79 74 -142 117 -247 170 -54 27 -98 51
-98 54 0 3 351 5 780 5 429 0 780 -2 780 -5z m-1541 -221 c179 -90 258 -183
297 -351 20 -84 14 -289 -11 -403 -21 -97 -89 -304 -125 -386 l-29 -64 -182 0
c-169 0 -181 1 -174 18 24 59 56 162 66 214 10 50 14 57 20 40 11 -29 37 -39
54 -21 7 8 24 42 38 76 21 54 23 65 11 80 -7 10 -14 30 -14 45 l0 27 25 -25
c13 -13 38 -27 54 -30 l29 -6 -36 -51 c-61 -84 -56 -209 9 -242 49 -26 128
-15 151 19 15 22 8 76 -13 97 -24 24 -45 20 -41 -10 8 -69 9 -66 -25 -69 -75
-7 -100 88 -43 166 33 46 41 50 60 27 7 -8 20 -15 29 -15 9 0 22 -9 29 -21 8
-13 21 -19 35 -17 30 4 34 54 9 111 -18 41 -19 48 -5 98 27 102 -3 236 -73
317 l-36 42 26 0 c49 0 76 17 76 49 0 42 -27 54 -101 46 -32 -4 -80 -4 -107 0
l-47 6 3 39 c3 31 -1 44 -22 64 -21 22 -34 26 -86 26 -55 0 -65 -3 -91 -30
-24 -23 -30 -37 -27 -62 2 -27 9 -35 35 -42 30 -9 32 -13 35 -65 2 -31 4 -57
3 -58 -1 -1 -30 6 -66 17 -35 11 -71 20 -80 20 -27 0 -29 -26 -6 -71 22 -42
23 -43 92 -55 39 -6 88 -19 110 -28 27 -12 60 -16 99 -14 58 3 59 3 77 -32 20
-36 25 -95 10 -104 -5 -3 -16 5 -25 19 -20 30 -40 31 -84 5 -53 -32 -68 -76
-55 -160 9 -58 9 -76 -3 -98 -13 -25 -14 -18 -14 79 0 125 -18 194 -62 245
-43 49 -63 57 -235 97 -83 20 -177 48 -209 63 -59 28 -144 97 -144 118 0 6 -9
20 -21 29 -29 26 -17 31 36 18 185 -47 382 -6 549 113 85 60 93 72 72 94 -15
18 -19 18 -88 -6 -61 -21 -91 -25 -178 -24 -58 1 -118 5 -135 10 -30 9 -30 9
15 16 108 17 255 86 299 139 12 15 18 13 70 -27 31 -24 107 -70 170 -102z
m1928 26 c32 -12 85 -27 118 -33 57 -10 58 -11 30 -19 -16 -5 -77 -9 -135 -10
-87 -1 -117 3 -178 24 -73 25 -73 25 -87 5 -18 -26 -12 -34 71 -93 166 -118
365 -159 549 -113 55 14 62 10 35 -21 -11 -13 -20 -26 -20 -30 0 -18 -80 -84
-135 -110 -33 -16 -118 -43 -190 -60 -193 -45 -202 -48 -239 -81 -19 -16 -45
-51 -58 -77 -21 -43 -23 -60 -22 -192 0 -151 16 -237 64 -361 11 -27 20 -52
20 -54 0 -3 -81 -5 -181 -5 l-180 0 -24 55 c-30 66 -95 252 -95 268 0 7 5 4
11 -5 13 -24 46 -23 61 2 7 11 20 20 29 20 9 0 22 7 29 15 19 23 28 19 60 -32
52 -82 32 -163 -40 -163 -36 0 -48 21 -30 55 22 42 -6 59 -40 25 -20 -20 -27
-74 -12 -96 13 -20 50 -34 92 -34 34 0 48 6 76 34 31 31 34 40 34 90 0 59 -14
96 -57 152 l-23 31 30 7 c17 3 42 18 55 32 l25 27 0 -27 c0 -15 -7 -38 -16
-51 -14 -22 -14 -27 0 -52 8 -15 22 -45 30 -66 17 -42 39 -55 61 -37 19 16 19
53 0 90 -13 24 -13 41 -3 103 11 70 10 76 -11 111 -23 36 -66 66 -95 66 -9 0
-23 -11 -32 -25 -9 -14 -20 -25 -25 -25 -17 0 -9 85 10 117 19 31 22 32 74 26
41 -4 68 0 111 16 31 11 82 24 112 27 49 6 59 11 75 38 25 40 25 86 2 86 -10
0 -47 -9 -82 -20 -36 -11 -65 -18 -66 -17 -1 1 1 27 3 58 3 52 5 56 35 65 26
7 33 15 35 42 3 25 -3 39 -27 62 -26 27 -36 30 -89 30 -81 0 -112 -24 -112
-85 0 -43 0 -43 -41 -50 -23 -4 -70 -4 -104 0 -78 8 -105 -3 -105 -46 0 -32
27 -49 78 -49 l26 0 -31 -32 c-75 -77 -111 -230 -79 -332 14 -45 14 -51 -5
-85 -10 -19 -19 -46 -19 -58 0 -46 -19 -21 -34 45 -73 322 -37 542 112 688 37
37 86 69 166 109 63 32 138 76 167 99 l53 42 62 -47 c34 -26 89 -57 121 -69z
m-2015 -171 c17 -9 19 -19 16 -62 l-3 -52 70 -11 c39 -6 64 -12 58 -13 -19 -2
-16 -21 3 -21 10 0 13 -6 9 -19 -4 -13 4 -26 29 -44 19 -15 48 -54 64 -87 41
-82 49 -154 27 -236 -16 -59 -16 -66 -1 -89 16 -24 16 -25 -4 -25 -11 0 -20 5
-20 10 0 6 -7 10 -15 10 -8 0 -15 -4 -15 -10 0 -5 -9 -10 -20 -10 -12 0 -20 6
-19 13 4 30 -3 37 -35 37 -26 0 -41 7 -60 31 -14 17 -26 35 -26 40 0 5 -9 9
-20 9 -30 0 -40 -85 -16 -140 3 -9 1 -23 -6 -33 -12 -16 -13 -15 -13 10 -1 16
-4 56 -9 89 -7 60 -7 62 24 98 36 41 56 45 65 16 3 -11 16 -25 28 -31 47 -26
76 73 41 146 -27 57 -49 71 -93 59 -53 -15 -134 10 -126 38 4 11 1 18 -7 18
-10 0 -9 3 2 10 12 7 12 14 2 43 -7 18 -12 54 -12 79 0 47 -9 58 -51 58 -25 0
-25 34 1 60 23 23 97 28 132 9z m1829 -10 c28 -28 21 -51 -19 -61 -31 -8 -32
-11 -32 -59 0 -27 -7 -63 -15 -79 -14 -26 -13 -30 3 -39 10 -7 12 -11 4 -11
-8 0 -11 -7 -7 -18 8 -28 -73 -53 -126 -38 -33 8 -41 7 -60 -10 -48 -43 -65
-142 -31 -184 15 -19 22 -21 39 -11 12 6 25 20 28 31 9 29 29 25 65 -16 31
-35 32 -39 24 -93 -4 -31 -8 -71 -9 -88 0 -18 -3 -33 -6 -33 -15 0 -19 34 -8
65 7 19 9 50 5 78 -6 38 -11 47 -27 47 -11 0 -23 -10 -28 -22 -13 -35 -42 -56
-81 -60 -30 -2 -35 -7 -33 -25 2 -17 -2 -23 -17 -23 -11 0 -20 5 -20 10 0 6
-7 10 -15 10 -8 0 -15 -4 -15 -10 0 -5 -9 -10 -20 -10 -20 0 -20 1 -4 25 15
24 15 29 -1 81 -34 110 6 260 89 329 34 29 38 35 27 49 -12 14 -11 16 8 16 22
0 30 19 9 21 -7 1 19 7 57 13 l70 11 -3 52 c-4 61 8 72 81 73 34 0 52 -5 68
-21z m-1201 -92 c70 -60 152 -154 178 -204 9 -15 12 -131 12 -387 l0 -366
-190 0 c-155 0 -190 3 -190 14 0 7 14 58 30 112 46 149 67 238 84 354 34 239
30 382 -13 505 -24 67 -20 66 89 -28z m530 27 c-65 -187 -39 -498 71 -855 16
-53 29 -104 29 -113 0 -14 -21 -16 -190 -16 l-190 0 0 368 0 367 34 50 c18 28
57 74 86 103 50 51 167 152 175 152 2 0 -5 -25 -15 -56z m-1845 -114 c42 -44
102 -76 202 -110 l88 -29 -183 0 -184 -1 7 43 c11 68 27 127 34 127 4 0 20
-14 36 -30z m3141 -95 l6 -45 -183 0 -184 1 98 33 c90 31 188 85 219 123 11
14 14 10 25 -26 6 -23 15 -61 19 -86z m-2616 48 c3 -3 -7 -3 -22 1 -16 3 -30
1 -34 -5 -6 -11 -23 5 -24 23 0 7 72 -10 80 -19z m2092 1 c-6 -11 -11 -13 -16
-5 -4 6 -19 9 -34 6 -15 -2 -9 1 13 9 46 15 51 14 37 -10z m-2125 -30 c-3 -3
-12 -4 -19 -1 -8 3 -5 6 6 6 11 1 17 -2 13 -5z m2110 0 c-3 -3 -12 -4 -19 -1
-8 3 -5 6 6 6 11 1 17 -2 13 -5z m-2487 -100 c0 -30 -81 -42 -165 -25 -50 10
-31 19 50 24 33 2 72 4 88 5 15 1 27 -1 27 -4z m316 -46 c-3 -29 -6 -63 -6
-75 0 -17 -63 -78 -237 -234 -233 -207 -238 -210 -245 -183 -9 33 -28 232 -28
290 l0 41 148 106 147 107 114 0 114 0 -7 -52z m2577 -54 l147 -106 0 -59 c0
-68 -19 -255 -29 -282 -5 -14 -50 21 -244 193 l-237 211 0 43 c0 24 -3 58 -6
75 l-6 31 114 0 114 0 147 -106z m146 90 c10 -9 -10 -14 -77 -20 -71 -7 -122
5 -122 28 0 8 190 0 199 -8z m-2999 2 c0 -3 -75 -58 -210 -155 -19 -14 -28
-18 -20 -9 15 15 221 168 227 168 2 0 3 -2 3 -4z m374 -26 c55 -49 71 -105 70
-245 -1 -128 -27 -254 -74 -364 -22 -50 -24 -52 -58 -49 l-36 3 3 60 c1 33 9
170 17 305 7 135 14 262 14 282 0 47 17 49 64 8z m2077 -7 c0 -21 8 -173 18
-338 10 -165 16 -303 14 -307 -10 -18 -63 -7 -77 15 -27 41 -66 176 -82 280
-26 170 -4 299 62 357 47 41 64 39 65 -7z m437 -51 c56 -41 105 -79 109 -84 6
-11 -214 146 -232 165 -18 18 17 -5 123 -81z m-3015 40 c14 -6 7 -15 -42 -50
-33 -23 -62 -42 -66 -42 -3 0 -5 23 -5 50 l0 50 48 -1 c26 0 55 -4 65 -7z
m3127 -42 c0 -27 -2 -50 -5 -50 -3 0 -33 20 -66 44 -67 49 -65 52 29 55 l42 1
0 -50z m-2730 -84 c0 -6 -442 -400 -460 -410 -27 -16 33 41 244 228 204 181
216 191 216 182z m2472 -214 c120 -107 218 -196 218 -199 0 -3 -8 1 -17 8 -41
32 -453 402 -453 407 0 7 21 -11 252 -216z m-2477 157 c-3 -8 -19 -20 -35 -26
-28 -10 -30 -15 -30 -63 0 -67 -13 -90 -50 -90 -36 0 -44 -12 -50 -80 l-5 -55
-108 -5 c-59 -3 -107 -4 -107 -3 0 6 384 343 387 340 2 -2 1 -11 -2 -18z
m2453 -174 c110 -99 199 -181 196 -184 -2 -2 -13 5 -24 17 -19 20 -31 22 -119
22 -111 0 -111 0 -111 75 0 48 -11 62 -55 67 -29 3 -30 5 -37 66 -8 69 -20 92
-49 92 -11 0 -19 7 -19 16 0 9 4 14 8 12 5 -1 99 -84 210 -183z m-2470 124
c-14 -8 -18 -23 -18 -69 0 -65 -15 -90 -55 -90 -31 0 -45 -27 -45 -87 0 -72
-3 -74 -116 -72 -109 2 -137 6 -129 20 4 5 50 9 103 9 53 0 103 4 110 8 7 5
16 35 20 67 7 56 9 60 38 65 48 10 54 18 54 71 0 58 13 89 38 89 16 -1 16 -1
0 -11z m2290 -1 c7 -7 12 -36 12 -64 0 -60 17 -84 59 -84 27 0 29 -3 35 -57 4
-31 12 -63 18 -70 7 -9 40 -13 109 -13 54 0 100 -4 104 -9 8 -14 -20 -19 -131
-20 -114 -2 -114 -3 -114 86 0 58 -8 73 -39 73 -45 0 -54 14 -59 82 -3 42 -9
67 -20 76 -13 10 -14 12 -1 12 8 0 20 -5 27 -12z m-2287 -196 c-6 -94 -11
-177 -11 -186 0 -28 -26 -18 -64 25 -36 39 -37 41 -31 102 9 84 10 87 43 87
40 0 52 17 52 71 0 48 8 84 17 75 3 -2 0 -81 -6 -174z m2269 109 c0 -64 11
-81 51 -81 35 0 35 -1 44 -81 l7 -67 -37 -41 c-21 -22 -43 -41 -50 -41 -9 0
-14 33 -19 118 -4 64 -9 150 -13 191 -4 54 -3 72 6 67 6 -4 11 -33 11 -65z
m-2655 -210 c-3 -6 -11 -11 -17 -11 -6 0 -6 6 2 15 14 17 26 13 15 -4z m235
-163 c0 -104 22 -167 66 -186 16 -8 91 -12 202 -13 l177 0 30 -42 c45 -62 106
-95 195 -107 98 -12 1135 -13 1223 0 37 6 85 19 106 29 38 20 111 93 111 111
0 6 67 10 180 10 114 0 188 4 204 12 47 21 60 54 66 168 l5 105 48 3 47 3 0
-34 c0 -69 -31 -261 -45 -283 -29 -44 -51 -49 -253 -54 l-194 -5 -13 -38 c-17
-51 -50 -85 -94 -97 -22 -6 -321 -10 -786 -10 l-751 0 -44 23 c-42 21 -68 54
-84 110 -5 15 -23 17 -186 17 -205 0 -238 8 -266 61 -15 30 -42 206 -44 282 0
26 2 27 50 27 l50 0 0 -92z m1280 2 c1017 0 1164 2 1190 15 40 21 40 20 40
-27 0 -60 -18 -116 -40 -128 -11 -6 -100 -10 -209 -10 -166 0 -191 -2 -191
-15 0 -29 -92 -110 -140 -123 -34 -10 -195 -12 -670 -10 -623 3 -625 3 -666
25 -44 23 -88 70 -99 103 -6 19 -15 20 -201 20 -236 0 -234 -1 -234 110 l0 71
30 -16 c26 -14 164 -15 1190 -15z m-1320 -312 c11 -3 10 -26 -8 -132 -23 -140
-20 -160 24 -195 32 -25 61 -27 92 -5 34 24 44 49 72 184 23 113 27 125 48
128 14 2 22 -2 22 -12 0 -42 -62 -294 -78 -315 -34 -46 -67 -63 -121 -63 -60
0 -107 24 -134 70 -18 30 -18 37 -2 199 9 93 18 174 21 180 2 9 11 5 27 -11
13 -13 29 -25 37 -28z m2727 -334 c-48 -99 -214 -102 -267 -3 -9 16 -70 284
-70 306 0 7 11 13 24 13 22 0 25 -7 47 -126 25 -136 46 -182 91 -198 39 -14
87 10 104 51 13 29 12 48 -7 160 -16 95 -19 128 -10 131 7 2 24 15 39 27 l27
23 19 -175 c17 -161 17 -179 3 -209z m-2582 294 c-3 -13 -14 -67 -24 -121 -20
-102 -32 -127 -62 -127 -28 0 -31 31 -14 132 24 148 20 138 65 138 37 0 40 -2
35 -22z m263 -23 c12 -25 37 -54 57 -67 19 -13 35 -28 35 -35 0 -26 -106 -219
-161 -292 -93 -124 -193 -208 -335 -280 -55 -28 -155 -68 -143 -57 2 2 50 38
105 79 240 180 356 363 387 609 6 51 16 88 22 88 6 0 21 -20 33 -45z m1877
-22 c28 -264 160 -470 415 -648 44 -31 80 -58 80 -60 0 -9 -85 27 -163 67 -98
51 -205 135 -270 211 -100 118 -229 355 -198 365 28 9 81 65 93 98 19 54 35
42 43 -33z m309 -55 c20 -124 18 -148 -12 -148 -31 0 -41 22 -62 129 -28 143
-28 143 17 139 l38 -3 19 -117z m-2755 106 c26 -5 31 -11 31 -34 0 -36 -8 -42
-34 -25 -13 10 -46 15 -94 15 -64 0 -73 2 -68 16 3 9 6 20 6 25 0 10 111 12
159 3z m3129 -21 c3 -22 0 -23 -65 -23 -39 0 -80 -6 -95 -14 -23 -12 -27 -12
-32 1 -21 53 -4 61 114 59 70 -1 75 -3 78 -23z m-3190 -90 c-21 -2 -55 -2 -75
0 -21 2 -4 4 37 4 41 0 58 -2 38 -4z m2579 -25 c-3 -7 -5 -2 -5 12 0 14 2 19
5 13 2 -7 2 -19 0 -25z m581 25 c-21 -2 -55 -2 -75 0 -21 2 -4 4 37 4 41 0 58
-2 38 -4z m-2653 -43 c-9 -41 -17 -33 -9 9 4 17 9 30 11 27 3 -2 2 -19 -2 -36z
m464 5 c6 -7 -86 -171 -126 -226 -101 -137 -239 -257 -374 -325 -38 -18 -71
-34 -74 -34 -4 0 27 26 67 58 168 134 255 275 323 527 2 9 174 9 184 0z m1347
-73 c51 -176 161 -342 300 -452 41 -33 72 -60 68 -60 -3 0 -42 19 -86 42 -152
81 -294 214 -393 368 -39 60 -95 163 -95 174 0 4 146 13 174 11 5 0 19 -38 32
-83z m-1096 71 c0 -20 -112 -229 -155 -289 -84 -118 -203 -222 -322 -283 -55
-27 -153 -64 -159 -59 -2 3 26 24 63 49 95 63 225 189 282 275 56 83 85 154
102 248 l12 66 89 0 c48 0 88 -3 88 -7z m255 -25 c-26 -125 -100 -285 -179
-386 -43 -55 -123 -137 -114 -117 2 6 20 44 40 85 55 115 108 321 108 421 l0
29 76 0 76 0 -7 -32z m284 -60 c20 -157 75 -334 128 -415 30 -46 5 -33 -46 23
-67 73 -126 160 -161 238 -27 58 -80 217 -80 237 0 5 33 9 73 9 l73 0 13 -92z
m290 26 c35 -191 170 -376 380 -519 39 -27 69 -50 67 -52 -8 -8 -144 50 -210
89 -88 52 -210 168 -274 261 -45 65 -120 203 -142 263 l-10 24 89 0 88 0 12
-66z m-1977 21 c-4 -35 -15 -45 -27 -25 -3 6 -40 10 -81 10 -59 0 -74 3 -74
15 0 12 14 15 68 16 37 0 76 4 87 9 31 13 31 12 27 -25z m2515 13 c-3 -8 -6
-5 -6 6 -1 11 2 17 5 13 3 -3 4 -12 1 -19z m539 2 c50 0 64 -3 64 -15 0 -12
-15 -15 -74 -15 -41 0 -78 -4 -81 -10 -13 -21 -25 -9 -25 25 0 33 1 34 26 25
14 -6 54 -10 90 -10z m-3111 -90 c-3 -5 -33 -10 -66 -10 -33 0 -59 4 -59 10 0
6 29 10 66 10 41 0 63 -4 59 -10z m3175 0 c0 -6 -27 -10 -60 -10 -33 0 -60 4
-60 10 0 6 27 10 60 10 33 0 60 -4 60 -10z m-3101 -71 c12 -23 20 -43 18 -45
-2 -2 -52 0 -113 4 -100 6 -109 9 -109 27 0 18 8 20 77 23 52 2 80 7 88 17 7
8 14 15 15 15 2 0 13 -19 24 -41z m3031 9 c67 -3 75 -5 75 -23 0 -18 -9 -21
-109 -27 -61 -4 -111 -6 -113 -4 -2 1 7 21 19 44 20 36 25 39 38 27 10 -9 44
-15 90 -17z"/>
<path d="M2874 5706 c-9 -23 0 -51 16 -51 10 0 15 10 15 29 0 32 -21 47 -31
22z m26 -26 c0 -5 -4 -10 -10 -10 -5 0 -10 5 -10 10 0 6 5 10 10 10 6 0 10 -4
10 -10z"/>
<path d="M2789 5569 c-35 -13 -55 -59 -39 -89 16 -30 56 -43 95 -30 64 21 66
97 4 119 -17 6 -32 11 -33 10 -1 0 -13 -5 -27 -10z m55 -35 c9 -8 16 -20 16
-24 0 -16 -46 -41 -63 -34 -32 12 -31 59 1 67 29 8 30 7 46 -9z"/>
<path d="M5550 5569 c-30 -12 -40 -26 -40 -60 0 -45 56 -78 103 -60 59 23 60
93 2 117 -19 8 -36 14 -37 13 -2 0 -14 -5 -28 -10z m78 -57 c5 -32 -33 -48
-64 -27 -25 16 -28 23 -16 41 19 30 75 20 80 -14z"/>
<path d="M2857 3980 c-23 -23 -28 -34 -23 -57 6 -24 0 -34 -33 -67 -24 -23
-41 -34 -45 -27 -21 34 -126 -16 -126 -60 0 -27 27 -35 49 -15 24 22 38 20 44
-5 4 -15 -7 -37 -39 -75 -51 -63 -74 -105 -74 -134 0 -33 24 -23 61 28 38 50
66 75 168 150 35 26 72 53 83 61 14 10 21 11 32 2 12 -10 17 -8 26 8 6 12 17
21 25 21 24 0 23 105 -1 151 -23 45 -64 43 -64 -3 0 -10 -7 -21 -15 -25 -24
-9 -29 3 -12 28 35 50 -11 66 -56 19z m37 -15 c-21 -32 -12 -55 22 -55 19 0
28 7 37 30 13 35 22 38 37 11 7 -13 7 -22 0 -26 -16 -10 -12 -45 6 -45 11 0
14 -5 10 -16 -3 -9 -6 -20 -6 -25 0 -4 -7 -6 -15 -3 -11 4 -15 0 -15 -16 0
-19 -3 -20 -15 -10 -12 10 -24 4 -67 -33 -29 -24 -79 -61 -110 -81 -31 -19
-76 -60 -99 -90 -24 -31 -45 -54 -47 -51 -6 6 19 48 57 95 67 84 64 75 46 109
-18 35 -31 38 -64 15 -22 -16 -23 -15 -19 2 6 31 52 51 87 38 27 -11 32 -9 76
36 38 38 46 52 40 70 -5 15 0 29 16 46 29 31 44 31 23 -1z"/>
<path d="M5480 3988 c0 -12 8 -30 17 -41 17 -18 17 -19 -7 -16 -15 3 -26 12
-28 24 -7 33 -22 46 -42 35 -24 -13 -40 -62 -40 -122 0 -41 4 -51 19 -55 11
-3 21 -13 24 -24 5 -20 27 -27 27 -9 0 19 22 10 66 -29 24 -21 68 -53 97 -71
29 -18 74 -59 102 -95 53 -68 75 -80 75 -42 0 26 -64 130 -97 160 -13 12 -19
26 -15 42 5 29 18 32 43 9 22 -20 49 -12 49 15 0 45 -96 91 -127 60 -17 -17
-84 71 -76 99 4 17 -2 31 -23 52 -35 36 -64 39 -64 8z m48 -18 c19 -15 22 -26
17 -48 -5 -25 1 -35 45 -76 38 -36 55 -45 63 -37 25 25 97 -2 97 -36 0 -15 -2
-14 -18 0 -28 25 -50 21 -67 -13 -16 -30 -15 -31 30 -87 45 -55 80 -111 73
-118 -2 -2 -23 21 -46 51 -23 30 -68 71 -100 91 -31 20 -81 57 -111 82 -34 29
-56 41 -58 34 -7 -21 -23 -15 -23 8 0 14 -5 19 -14 16 -9 -4 -16 3 -18 18 -4
17 0 25 15 29 19 5 19 6 4 29 -14 22 -14 26 0 47 l16 23 11 -34 c9 -29 16 -34
41 -34 36 0 45 27 19 56 -22 25 -6 24 24 -1z"/>
<path d="M1807 8108 c14 -40 28 -75 29 -77 2 -2 22 12 45 30 l42 33 -23 15
c-13 9 -45 28 -72 44 l-48 27 27 -72z"/>
<path d="M6668 8121 c-13 -16 -54 -64 -93 -106 l-70 -78 49 -43 c69 -63 94
-61 167 15 63 64 80 110 59 152 -14 28 -70 89 -81 89 -4 0 -18 -13 -31 -29z"/>
<path d="M1378 7802 l-50 -48 63 -61 c84 -79 145 -133 151 -133 3 0 22 21 42
47 52 66 49 99 -11 165 -46 49 -94 78 -128 78 -9 0 -39 -22 -67 -48z"/>
<path d="M754 6772 c-12 -8 -33 -45 -57 -105 l-16 -37 39 -20 c22 -11 43 -20
48 -20 10 0 46 77 57 122 10 41 -38 82 -71 60z"/>
<path d="M7700 6157 c0 -2 7 -27 16 -56 l15 -52 58 48 c36 30 54 51 47 55 -10
7 -136 11 -136 5z"/>
<path d="M7948 4685 c2 -30 6 -55 8 -55 3 0 35 14 72 31 l67 31 -69 24 c-39
13 -72 24 -75 24 -4 0 -4 -25 -3 -55z"/>
<path d="M6627 1452 l-47 -48 36 -34 36 -35 44 50 c44 51 54 81 32 103 -23 23
-54 12 -101 -36z"/>
<path d="M5802 850 l-43 -20 27 -49 28 -49 37 19 c68 34 86 70 53 103 -20 21
-50 20 -102 -4z"/>
<path d="M2826 773 c-9 -18 -16 -37 -16 -42 0 -10 96 -51 120 -51 25 0 43 26
36 53 -4 17 -22 31 -65 49 l-59 25 -16 -34z"/>
<path d="M2758 617 c-10 -23 -18 -45 -18 -48 0 -4 28 -19 61 -34 50 -22 66
-25 85 -16 28 12 33 61 9 81 -12 10 -111 60 -118 60 -1 0 -10 -19 -19 -43z"/>
<path d="M3341 579 c-32 -30 -51 -80 -51 -134 0 -57 12 -80 50 -100 89 -46
170 22 170 145 0 44 -5 56 -29 81 -38 37 -104 41 -140 8z"/>
</g>
</svg>
